<?xml version="1.0" standalone="no"?>
<!DOCTYPE svg PUBLIC "-//W3C//DTD SVG 20010904//EN"
 "http://www.w3.org/TR/2001/REC-SVG-20010904/DTD/svg10.dtd">
<svg version="1.0" xmlns="http://www.w3.org/2000/svg"
 width="1131.000000pt" height="875.000000pt" viewBox="0 0 1131.000000 875.000000"
 preserveAspectRatio="xMidYMid meet">

<g transform="translate(0.000000,875.000000) scale(0.100000,-0.100000)"
fill="#000000" stroke="none">
<path d="M4102 5534 c-161 -35 -326 -102 -449 -180 -84 -54 -231 -189 -219
-201 4 -4 190 -8 415 -9 l408 -3 -5 54 c-2 29 -16 120 -31 202 -19 110 -30
148 -41 149 -8 1 -44 -4 -78 -12z m6 -177 c3 -21 -2 -27 -20 -32 -144 -33
-302 -65 -318 -65 -32 0 -23 18 19 40 41 21 289 90 306 86 6 -1 11 -14 13 -29z"/>
<path d="M4428 4953 c2 -307 7 -561 10 -564 4 -4 312 -10 684 -14 l677 -6 6
23 c3 13 5 64 3 113 l-3 90 -573 5 -574 5 0 103 c0 57 3 106 5 109 3 2 134 4
290 3 246 -1 287 1 294 14 5 9 53 61 107 116 l99 100 -395 0 c-217 0 -397 2
-399 4 -2 2 -3 54 -1 115 l3 111 564 0 c459 0 564 2 568 13 6 16 6 175 -1 200
-4 16 -45 17 -686 17 l-682 0 4 -557z"/>
<path d="M5936 5468 c-8 -18 -28 -64 -45 -102 -17 -37 -31 -74 -31 -82 0 -12
48 -14 284 -14 291 0 326 -4 375 -42 105 -81 86 -265 -33 -319 -37 -17 -69
-19 -305 -19 -241 0 -263 -1 -257 -17 10 -24 106 -185 124 -205 13 -15 33 -18
126 -18 l112 0 50 -52 c28 -29 102 -111 164 -181 63 -71 122 -133 131 -138 10
-5 83 -9 163 -9 l146 0 -43 53 c-24 28 -61 70 -82 93 -22 22 -69 73 -105 113
-36 40 -82 91 -102 114 -21 22 -38 43 -38 46 0 3 25 19 55 36 149 80 225 242
197 421 -25 158 -114 259 -282 321 -74 27 -80 28 -332 31 l-258 3 -14 -33z"/>
<path d="M6752 5483 c8 -10 45 -53 82 -96 37 -43 72 -87 79 -98 11 -18 27 -19
328 -19 282 0 318 -2 330 -17 11 -13 15 -110 19 -497 l5 -481 113 -2 112 -1 0
488 c0 406 2 489 14 499 10 9 101 11 330 9 368 -3 329 -19 324 132 l-3 95
-874 3 c-833 2 -873 1 -859 -15z"/>
<path d="M3394 5085 c-16 -22 -18 -45 -5 -45 21 0 14 -50 -19 -149 l-35 -103
-50 -20 c-27 -11 -77 -28 -110 -40 -62 -20 -100 -36 -171 -69 -23 -10 -45 -19
-49 -19 -4 0 -21 -6 -38 -14 -18 -8 -51 -22 -74 -32 l-43 -18 0 -120 c0 -160
3 -168 49 -164 32 3 39 8 62 54 51 102 162 178 277 190 70 8 167 -15 219 -50
20 -14 40 -23 45 -20 4 3 8 0 8 -7 0 -16 40 -50 51 -43 5 3 9 0 9 -7 0 -7 8
-30 18 -50 l17 -38 353 -1 352 0 0 51 0 52 -362 -7 -363 -7 -40 41 c-22 23
-60 56 -85 73 -25 17 -48 35 -52 41 -8 12 -5 183 4 211 4 11 12 34 17 50 6 17
25 71 41 120 17 50 38 95 46 102 21 16 301 18 320 2 11 -9 14 -66 14 -300 l0
-289 230 0 230 0 0 326 0 326 -426 -4 c-411 -3 -427 -4 -440 -23z"/>
<path d="M3505 5011 c4 -3 62 -8 130 -11 81 -3 121 -2 114 5 -5 5 -64 10 -130
11 -66 1 -117 -1 -114 -5z"/>
<path d="M3430 4845 c-15 -39 -24 -81 -16 -73 9 8 37 98 30 98 -2 0 -9 -11
-14 -25z"/>
<path d="M3743 4749 c-7 -7 -67 -9 -175 -7 l-164 3 -3 -77 -2 -76 37 -29 c20
-15 56 -46 79 -68 l43 -40 101 3 101 3 0 150 c0 82 -1 149 -3 149 -2 0 -8 -5
-14 -11z"/>
<path d="M2885 4721 c-3 -6 1 -25 9 -43 11 -27 15 -30 21 -15 14 34 -12 86
-30 58z"/>
<path d="M3115 4474 c-52 -18 -133 -90 -163 -143 -31 -54 -6 -57 34 -3 40 53
47 58 95 84 32 17 65 24 121 26 108 6 162 -14 230 -83 57 -59 70 -66 65 -36
-9 56 -103 139 -182 160 -55 15 -152 12 -200 -5z"/>
<path d="M3122 4380 c-50 -23 -120 -85 -133 -117 -8 -21 -15 -23 -71 -23 l-63
0 5 -97 5 -98 53 -3 52 -3 0 63 c0 46 7 77 25 116 13 29 26 56 27 60 2 4 19
20 38 37 19 16 37 33 40 36 14 17 87 31 132 26 107 -13 182 -82 215 -197 22
-78 33 -83 28 -14 -7 81 -39 141 -99 181 -83 56 -176 68 -254 33z"/>
<path d="M5108 4343 c6 -2 18 -2 25 0 6 3 1 5 -13 5 -14 0 -19 -2 -12 -5z"/>
<path d="M5240 4340 c95 -20 172 -108 193 -220 9 -48 15 -60 31 -60 17 0 18 5
12 46 -12 90 -71 185 -136 219 -14 7 -52 15 -85 19 -56 5 -57 5 -15 -4z"/>
<path d="M5034 4327 c-75 -43 -117 -114 -127 -210 -5 -51 -4 -58 11 -55 13 2
19 18 23 58 11 94 62 178 125 206 23 10 25 12 9 13 -11 0 -29 -5 -41 -12z"/>
<path d="M3190 4291 c-47 -15 -72 -36 -96 -83 -39 -77 -29 -142 30 -198 21
-19 40 -25 91 -28 71 -5 118 15 149 64 18 27 23 89 11 141 -9 38 -58 86 -104
102 -38 12 -45 13 -81 2z m113 -62 c37 -28 53 -86 37 -133 -16 -49 -57 -76
-115 -76 -40 0 -52 5 -76 31 -27 29 -33 45 -32 94 1 41 4 48 34 76 40 37 111
41 152 8z"/>
<path d="M4437 4293 c-11 -3 -16 -11 -13 -19 3 -8 1 -26 -4 -40 -9 -23 -14
-25 -67 -22 -55 3 -58 4 -61 31 l-3 27 -165 0 -164 0 0 -75 0 -75 164 0 c163
0 165 0 168 23 l3 22 270 5 270 5 0 60 0 60 -190 1 c-104 1 -198 0 -208 -3z"/>
<path d="M5103 4280 c-59 -39 -91 -115 -78 -190 8 -48 38 -84 87 -105 71 -29
127 -17 183 41 33 33 35 40 35 100 0 38 -6 77 -15 94 -34 66 -152 99 -212 60z
m131 -45 c42 -20 58 -48 58 -103 0 -41 -5 -51 -36 -79 -41 -38 -87 -43 -137
-17 -31 15 -59 66 -59 104 0 82 93 133 174 95z"/>
<path d="M3712 4273 l-193 -3 2 -58 c4 -100 -14 -92 200 -92 l189 0 0 80 c0
44 -1 79 -2 78 -2 -2 -90 -4 -196 -5z"/>
<path d="M2783 4243 c-22 -4 -23 -9 -23 -98 0 -91 0 -93 25 -97 l25 -5 0 103
c0 57 -1 103 -2 103 -2 -1 -13 -4 -25 -6z"/>
<path d="M3705 3910 c-357 -4 -774 -8 -925 -10 l-275 -3 200 -8 c110 -4 380
-12 600 -18 220 -6 490 -16 600 -21 110 -6 349 -13 530 -15 182 -3 506 -8 720
-12 432 -7 1807 13 1925 27 41 5 224 12 405 15 182 3 366 9 410 11 44 3 206 9
360 13 l280 8 -235 3 c-129 1 -500 5 -825 9 -761 9 -2934 9 -3770 1z"/>
<path d="M4705 3691 c-56 -23 -59 -77 -6 -103 54 -27 67 -44 51 -64 -10 -12
-24 -15 -52 -11 -28 4 -38 2 -38 -9 0 -28 84 -30 117 -2 7 6 13 26 13 44 0 30
-5 36 -44 55 -25 11 -47 27 -50 34 -8 21 20 38 54 33 24 -4 30 -1 28 11 -4 18
-43 24 -73 12z"/>
<path d="M5423 3693 c-12 -2 -33 -16 -47 -30 -33 -33 -36 -107 -6 -145 21 -27
73 -41 121 -31 28 5 29 8 29 59 0 53 0 54 -30 54 -20 0 -30 -5 -30 -15 0 -8 7
-15 16 -15 11 0 14 -8 12 -27 -4 -32 -27 -40 -67 -23 -24 10 -28 17 -30 60 -3
64 25 94 82 87 26 -4 37 -1 37 8 0 22 -32 29 -87 18z"/>
<path d="M6865 3690 c-54 -21 -57 -76 -6 -102 47 -23 65 -43 57 -63 -5 -13
-16 -16 -48 -13 -46 3 -64 -16 -24 -26 34 -8 82 3 101 24 27 30 15 61 -35 90
-53 31 -63 56 -26 66 14 3 33 4 41 1 19 -8 31 13 14 24 -17 11 -47 10 -74 -1z"/>
<path d="M7380 3693 c-80 -31 -92 -161 -18 -199 36 -19 88 -12 112 15 39 43
38 128 -2 164 -20 19 -69 29 -92 20z m59 -32 c32 -20 29 -121 -3 -143 -53 -36
-109 50 -75 115 20 36 48 47 78 28z"/>
<path d="M3110 3590 l0 -100 65 0 c51 0 65 3 65 15 0 11 -12 15 -46 15 -44 0
-45 1 -42 28 3 23 8 27 41 30 53 5 51 32 -3 32 -36 0 -40 3 -40 25 0 23 4 25
45 25 33 0 45 4 45 15 0 12 -14 15 -65 15 l-65 0 0 -100z"/>
<path d="M3372 3599 c35 -112 34 -109 61 -109 19 0 27 14 56 95 19 53 31 98
28 102 -16 16 -36 -12 -56 -82 -13 -42 -25 -74 -28 -71 -3 2 -15 37 -27 78
-18 57 -27 74 -43 76 -21 3 -21 1 9 -89z"/>
<path d="M3621 3590 l-2 -100 66 0 c51 0 65 3 65 15 0 11 -12 15 -49 15 -49 0
-49 0 -42 28 6 23 13 27 50 30 55 4 50 26 -7 30 -37 3 -42 6 -42 28 0 22 4 24
45 24 33 0 45 4 45 15 0 12 -14 15 -63 15 l-63 0 -3 -100z"/>
<path d="M3870 3590 c0 -94 1 -100 20 -100 18 0 20 5 15 41 -5 39 -4 40 22 37
20 -2 29 -11 38 -38 8 -24 19 -36 33 -38 20 -3 21 -1 12 25 -6 15 -15 38 -22
50 -8 17 -7 25 6 38 42 42 7 85 -70 85 l-54 0 0 -100z m86 72 c32 -22 21 -54
-23 -64 -17 -5 -22 -1 -25 22 -2 15 -2 32 0 38 4 13 31 16 48 4z"/>
<path d="M4250 3590 c0 -93 1 -100 20 -100 17 0 20 7 20 41 0 38 2 40 27 37
22 -2 29 -10 36 -40 7 -28 14 -38 28 -38 23 0 24 8 3 60 -15 36 -15 41 0 55
42 42 1 85 -81 85 l-53 0 0 -100z m103 59 c16 -26 1 -49 -33 -49 -26 0 -30 3
-30 28 0 16 3 32 7 36 12 11 45 2 56 -15z"/>
<path d="M4510 3590 c0 -93 1 -100 20 -100 19 0 20 7 20 100 0 93 -1 100 -20
100 -19 0 -20 -7 -20 -100z"/>
<path d="M4910 3590 c0 -90 2 -100 18 -100 17 0 18 10 18 100 -1 89 -3 100
-18 100 -16 0 -18 -11 -18 -100z"/>
<path d="M5070 3590 c0 -82 3 -100 15 -100 12 0 15 15 15 75 0 41 4 75 8 75 4
0 24 -34 45 -75 27 -56 42 -75 57 -75 19 0 20 7 20 100 0 82 -3 100 -15 100
-12 0 -15 -15 -15 -77 l-1 -78 -40 78 c-34 63 -46 77 -65 77 -24 0 -24 -1 -24
-100z"/>
<path d="M5740 3675 c0 -10 10 -15 30 -15 l30 0 0 -85 c0 -74 2 -85 18 -85 15
0 17 11 17 82 l0 83 30 5 c56 10 30 25 -47 28 -65 2 -78 0 -78 -13z"/>
<path d="M6000 3590 c0 -82 3 -100 15 -100 8 0 16 6 16 13 1 6 3 19 4 27 1 8
3 21 4 28 0 6 10 12 21 12 21 0 40 -27 40 -59 0 -16 6 -21 24 -21 22 0 24 3
17 28 -5 16 -15 38 -22 51 -12 19 -12 23 4 32 24 14 23 65 -2 79 -11 5 -42 10
-70 10 l-51 0 0 -100z m94 64 c9 -8 16 -19 16 -23 0 -15 -25 -31 -47 -31 -20
0 -23 5 -23 35 0 28 4 35 19 35 11 0 27 -7 35 -16z"/>
<path d="M6305 3678 c-24 -67 -55 -165 -55 -175 0 -23 30 -14 40 12 8 20 16
25 45 25 29 0 37 -5 45 -25 6 -14 17 -25 28 -25 18 0 17 7 -13 98 -29 88 -34
97 -58 100 -16 2 -29 -2 -32 -10z m55 -105 c0 -7 -11 -13 -25 -13 -29 0 -31
13 -14 75 l12 40 13 -45 c8 -25 14 -51 14 -57z"/>
<path d="M6530 3590 c0 -93 1 -100 20 -100 18 0 20 7 20 75 0 41 3 75 8 74 4
0 23 -32 42 -72 26 -54 41 -73 58 -75 22 -3 22 -1 22 97 0 82 -3 101 -15 101
-11 0 -15 -17 -17 -72 l-3 -73 -39 73 c-34 64 -42 72 -67 72 l-29 0 0 -100z"/>
<path d="M7060 3590 c0 -93 1 -100 20 -100 16 0 20 7 20 34 0 32 3 35 39 41
63 11 90 66 51 105 -15 15 -33 20 -75 20 l-55 0 0 -100z m104 58 c15 -25 -3
-52 -38 -56 -24 -3 -26 0 -26 31 0 18 3 37 7 41 12 12 45 2 57 -16z"/>
<path d="M7620 3590 c0 -82 3 -100 15 -100 15 0 29 35 23 61 -2 9 5 14 22 14
20 0 27 -7 36 -35 7 -19 19 -37 29 -39 15 -2 17 2 11 30 -3 18 -13 40 -21 49
-12 14 -12 17 5 28 11 7 20 23 20 36 0 37 -30 56 -88 56 l-52 0 0 -100z m88
71 c8 -4 12 -19 10 -32 -2 -19 -10 -25 -34 -27 -30 -3 -32 -2 -29 30 2 18 4
34 4 36 2 5 37 1 49 -7z"/>
<path d="M7860 3675 c0 -9 9 -15 25 -15 25 0 25 -1 25 -85 0 -78 2 -85 20 -85
18 0 20 7 20 84 0 84 0 85 27 88 14 2 28 9 31 16 3 9 -16 12 -72 12 -61 0 -76
-3 -76 -15z"/>
</g>
</svg>
